<svg width="24" height="24" viewBox="0 0 24 24" fill="none" xmlns="http://www.w3.org/2000/svg">
<g opacity="0.4">
<path d="M13.7 20.6L15.6 18.8C15.7801 18.6099 15.8865 18.3617 15.9 18.1V12.8L10.2 18.5L12.3 20.6C12.6888 20.9812 13.3111 20.9812 13.7 20.6Z" fill="black"/>
<path d="M3.79997 12.1L5.99997 14.3L11.6 8.60001H6.39997C6.13374 8.59149 5.87741 8.70135 5.69997 8.90001L3.79997 10.7C3.49954 11.1183 3.49954 11.6817 3.79997 12.1Z" fill="black"/>
<path d="M16.6 8.90002C17.1523 8.90002 17.6 8.45231 17.6 7.90002C17.6 7.34774 17.1523 6.90002 16.6 6.90002C16.0477 6.90002 15.6 7.34774 15.6 7.90002C15.6 8.45231 16.0477 8.90002 16.6 8.90002Z" fill="black"/>
<path d="M7.39997 21.3C6.59997 22.1 4.49997 22.2 3.29997 22.1C2.80291 22.1 2.39997 21.6971 2.39997 21.2C2.29997 20 2.29997 17.9 3.09997 17.1C3.66475 16.5196 4.44016 16.1923 5.24997 16.1923C6.05978 16.1923 6.8352 16.5196 7.39997 17.1C8.49284 18.2867 8.49284 20.1133 7.39997 21.3Z" fill="black"/>
</g>
<path fill-rule="evenodd" clip-rule="evenodd" d="M21.6 4.09998L20.2 8.39998L19.9 8.79998L10.2 18.5L6 14.3L15.7 4.49998C15.7944 4.37408 15.9426 4.29998 16.1 4.29998L20.3 2.89998C20.6498 2.77618 21.0393 2.85621 21.312 3.10787C21.5846 3.35953 21.6955 3.74145 21.6 4.09998ZM15.6742 7.50778C15.5206 7.88391 15.6099 8.31558 15.9 8.59998C16.2888 8.98113 16.9112 8.98113 17.3 8.59998C17.5901 8.31558 17.6794 7.88391 17.5258 7.50778C17.3722 7.13165 17.0063 6.88584 16.6 6.88584C16.1937 6.88584 15.8278 7.13165 15.6742 7.50778Z" fill="black"/>
</svg>
